<svg width="25" height="25" viewBox="0 0 25 25" fill="none" xmlns="http://www.w3.org/2000/svg">
<path d="M23.9583 18.6565C23.9791 19.4377 23.7708 20.1773 23.3958 20.8128C23.1875 21.1878 22.9062 21.5315 22.5937 21.8128C21.875 22.4794 20.927 22.8857 19.875 22.9169C18.3541 22.9482 17.0104 22.1669 16.2708 20.969C15.875 20.3544 15.6354 19.6149 15.625 18.8336C15.5937 17.5211 16.1771 16.3336 17.1146 15.5524C17.8229 14.969 18.7187 14.6044 19.6979 14.5836C22 14.5315 23.9062 16.3544 23.9583 18.6565Z" stroke="white" stroke-width="1.04167" stroke-miterlimit="10" stroke-linecap="round" stroke-linejoin="round"/>
<path d="M18.1666 18.7815L19.2187 19.7814L21.3958 17.6772" stroke="white" stroke-width="1.04167" stroke-linecap="round" stroke-linejoin="round"/>
<path d="M3.30225 7.75L12.5001 13.0729L21.6356 7.78122" stroke="white" stroke-width="1.04167" stroke-linecap="round" stroke-linejoin="round"/>
<path d="M12.5002 22.5104V13.0625" stroke="white" stroke-width="1.04167" stroke-linecap="round" stroke-linejoin="round"/>
<path d="M22.5106 9.55225V15.4481C22.5106 15.5002 22.5106 15.5418 22.5002 15.5939C21.771 14.9585 20.8335 14.5835 19.7918 14.5835C18.8126 14.5835 17.9064 14.9273 17.1876 15.5002C16.2293 16.2606 15.6251 17.4377 15.6251 18.7502C15.6251 19.5314 15.8439 20.271 16.2293 20.896C16.3231 21.0627 16.4376 21.2189 16.5626 21.3648L14.6564 22.4169C13.4689 23.0835 11.5314 23.0835 10.3439 22.4169L4.78139 19.3335C3.52098 18.6356 2.48975 16.8856 2.48975 15.4481V9.55225C2.48975 8.11475 3.52098 6.36477 4.78139 5.66685L10.3439 2.5835C11.5314 1.91683 13.4689 1.91683 14.6564 2.5835L20.2189 5.66685C21.4793 6.36477 22.5106 8.11475 22.5106 9.55225Z" stroke="white" stroke-width="1.04167" stroke-linecap="round" stroke-linejoin="round"/>
</svg>
