<svg width="26" height="26" viewBox="0 0 26 26" fill="none" xmlns="http://www.w3.org/2000/svg">
<path d="M18.9977 14.5851C18.5602 15.0122 18.3102 15.6268 18.3727 16.283C18.4664 17.408 19.4977 18.2309 20.6227 18.2309H22.6018V19.4705C22.6018 21.6268 20.8414 23.3872 18.6852 23.3872H6.72685C4.5706 23.3872 2.81018 21.6268 2.81018 19.4705V12.4601C2.81018 10.3039 4.5706 8.54346 6.72685 8.54346H18.6852C20.8414 8.54346 22.6018 10.3039 22.6018 12.4601V13.9601H20.4977C19.9143 13.9601 19.3831 14.1893 18.9977 14.5851Z" stroke="#FDFDFD" stroke-width="0.735294" stroke-linecap="round" stroke-linejoin="round"/>
<path d="M2.81018 13.3973V8.63696C2.81018 7.39738 3.5706 6.29316 4.72685 5.85566L12.9977 2.73066C14.2893 2.24108 15.6748 3.19944 15.6748 4.58486V8.54318" stroke="#FDFDFD" stroke-width="0.735294" stroke-linecap="round" stroke-linejoin="round"/>
<path d="M23.7048 15.0229V17.1688C23.7048 17.7417 23.2464 18.2104 22.6631 18.2313H20.6214C19.4964 18.2313 18.4652 17.4083 18.3714 16.2833C18.3089 15.6271 18.5589 15.0125 18.9964 14.5854C19.3819 14.1896 19.9131 13.9604 20.4964 13.9604H22.6631C23.2464 13.9813 23.7048 14.45 23.7048 15.0229Z" stroke="#FDFDFD" stroke-width="0.735294" stroke-linecap="round" stroke-linejoin="round"/>
<path d="M7.49768 12.9707H14.7893" stroke="#FDFDFD" stroke-width="0.735294" stroke-linecap="round" stroke-linejoin="round"/>
</svg>
