<svg width="29" height="29" viewBox="0 0 29 29" fill="none" xmlns="http://www.w3.org/2000/svg">
<path d="M11.0683 13.1344C10.9475 13.1223 10.8025 13.1223 10.6696 13.1344C7.79376 13.0378 5.51001 10.6815 5.51001 7.7815C5.51001 4.82109 7.90251 2.4165 10.875 2.4165C13.8354 2.4165 16.24 4.82109 16.24 7.7815C16.2279 10.6815 13.9442 13.0378 11.0683 13.1344Z" stroke="white" stroke-width="1.8125" stroke-linecap="round" stroke-linejoin="round"/>
<path d="M19.8288 4.8335C22.1729 4.8335 24.0579 6.73058 24.0579 9.06266C24.0579 11.3464 22.2454 13.2072 19.9859 13.2918C19.8892 13.2797 19.7804 13.2797 19.6717 13.2918" stroke="white" stroke-width="1.8125" stroke-linecap="round" stroke-linejoin="round"/>
<path d="M5.02662 17.5935C2.10245 19.551 2.10245 22.741 5.02662 24.6864C8.34954 26.9097 13.7991 26.9097 17.122 24.6864C20.0462 22.7289 20.0462 19.5389 17.122 17.5935C13.8112 15.3822 8.36162 15.3822 5.02662 17.5935Z" stroke="white" stroke-width="1.8125" stroke-linecap="round" stroke-linejoin="round"/>
<path d="M22.1609 24.1665C23.0309 23.9853 23.8526 23.6348 24.5292 23.1153C26.4142 21.7015 26.4142 19.3694 24.5292 17.9557C23.8646 17.4482 23.0551 17.1098 22.1971 16.9165" stroke="white" stroke-width="1.8125" stroke-linecap="round" stroke-linejoin="round"/>
</svg>
