<svg width="16" height="18" viewBox="0 0 16 18" fill="none" xmlns="http://www.w3.org/2000/svg">
<path d="M8 11.25C9.24264 11.25 10.25 10.2426 10.25 9C10.25 7.75736 9.24264 6.75 8 6.75C6.75736 6.75 5.75 7.75736 5.75 9C5.75 10.2426 6.75736 11.25 8 11.25Z" stroke="white" stroke-width="1.125"/>
<path d="M9.32372 1.614C9.04847 1.5 8.69897 1.5 7.99997 1.5C7.30097 1.5 6.95147 1.5 6.67622 1.614C6.49411 1.68938 6.32864 1.79992 6.18926 1.93929C6.04989 2.07866 5.93936 2.24414 5.86397 2.42625C5.79497 2.5935 5.76722 2.78925 5.75672 3.0735C5.75205 3.27899 5.69522 3.47992 5.59158 3.65743C5.48794 3.83493 5.34088 3.98318 5.16422 4.08825C4.98489 4.18878 4.78295 4.24208 4.57737 4.24313C4.37179 4.24418 4.16932 4.19295 3.98897 4.09425C3.73697 3.96075 3.55472 3.88725 3.37397 3.86325C2.97971 3.8114 2.581 3.91823 2.26547 4.16025C2.02997 4.3425 1.85447 4.64475 1.50497 5.25C1.15547 5.85525 0.979972 6.1575 0.941722 6.45375C0.915948 6.64909 0.928912 6.84759 0.979872 7.03792C1.03083 7.22825 1.11879 7.40667 1.23872 7.563C1.34972 7.707 1.50497 7.82775 1.74572 7.97925C2.10047 8.202 2.32847 8.5815 2.32847 9C2.32847 9.4185 2.10047 9.798 1.74572 10.02C1.50497 10.1722 1.34897 10.293 1.23872 10.437C1.11879 10.5933 1.03083 10.7718 0.979872 10.9621C0.928912 11.1524 0.915948 11.3509 0.941722 11.5463C0.980722 11.8418 1.15547 12.1448 1.50422 12.75C1.85447 13.3552 2.02922 13.6575 2.26547 13.8397C2.4218 13.9597 2.60022 14.0476 2.79055 14.0986C2.98088 14.1496 3.17938 14.1625 3.37472 14.1368C3.55472 14.1128 3.73697 14.0393 3.98897 13.9058C4.16932 13.8071 4.37179 13.7558 4.57737 13.7569C4.78295 13.7579 4.98489 13.8112 5.16422 13.9117C5.52647 14.1217 5.74172 14.508 5.75672 14.9265C5.76722 15.2115 5.79422 15.4065 5.86397 15.5737C5.93936 15.7559 6.04989 15.9213 6.18926 16.0607C6.32864 16.2001 6.49411 16.3106 6.67622 16.386C6.95147 16.5 7.30097 16.5 7.99997 16.5C8.69897 16.5 9.04847 16.5 9.32372 16.386C9.50584 16.3106 9.67131 16.2001 9.81068 16.0607C9.95005 15.9213 10.0606 15.7559 10.136 15.5737C10.205 15.4065 10.2327 15.2115 10.2432 14.9265C10.2582 14.508 10.4735 14.121 10.8357 13.9117C11.015 13.8112 11.217 13.7579 11.4226 13.7569C11.6282 13.7558 11.8306 13.8071 12.011 13.9058C12.263 14.0393 12.4452 14.1128 12.6252 14.1368C12.8206 14.1625 13.0191 14.1496 13.2094 14.0986C13.3997 14.0476 13.5781 13.9597 13.7345 13.8397C13.9707 13.6582 14.1455 13.3552 14.495 12.75C14.8445 12.1448 15.02 11.8425 15.0582 11.5463C15.084 11.3509 15.071 11.1524 15.0201 10.9621C14.9691 10.7718 14.8812 10.5933 14.7612 10.437C14.6502 10.293 14.495 10.1723 14.2542 10.0208C14.0785 9.91396 13.9329 9.76425 13.8309 9.58569C13.729 9.40713 13.6741 9.20559 13.6715 9C13.6715 8.5815 13.8995 8.202 14.2542 7.98C14.495 7.82775 14.651 7.707 14.7612 7.563C14.8812 7.40667 14.9691 7.22825 15.0201 7.03792C15.071 6.84759 15.084 6.64909 15.0582 6.45375C15.0192 6.15825 14.8445 5.85525 14.4957 5.25C14.1455 4.64475 13.9707 4.3425 13.7345 4.16025C13.5781 4.04032 13.3997 3.95236 13.2094 3.9014C13.0191 3.85044 12.8206 3.83748 12.6252 3.86325C12.4452 3.88725 12.263 3.96075 12.0102 4.09425C11.83 4.19281 11.6276 4.24397 11.4222 4.24292C11.2168 4.24187 11.015 4.18865 10.8357 4.08825C10.6591 3.98318 10.512 3.83493 10.4084 3.65743C10.3047 3.47992 10.2479 3.27899 10.2432 3.0735C10.2327 2.7885 10.2057 2.5935 10.136 2.42625C10.0606 2.24414 9.95005 2.07866 9.81068 1.93929C9.67131 1.79992 9.50584 1.68938 9.32372 1.614Z" stroke="white" stroke-width="1.125"/>
</svg>
