<svg width="26" height="26" viewBox="0 0 26 26" fill="none" xmlns="http://www.w3.org/2000/svg">
<path d="M13 12.9998C15.9915 12.9998 18.4166 10.5747 18.4166 7.58317C18.4166 4.59163 15.9915 2.1665 13 2.1665C10.0084 2.1665 7.58331 4.59163 7.58331 7.58317C7.58331 10.5747 10.0084 12.9998 13 12.9998Z" stroke="white" stroke-width="1.625" stroke-linecap="round" stroke-linejoin="round"/>
<path d="M3.69424 23.8333C3.69424 19.6408 7.86507 16.25 13.0001 16.25C14.0401 16.25 15.0476 16.3908 15.9901 16.6508" stroke="white" stroke-width="1.625" stroke-linecap="round" stroke-linejoin="round"/>
<path d="M23.8334 19.4998C23.8334 20.3123 23.6059 21.0815 23.205 21.7315C22.9775 22.1215 22.685 22.4682 22.3492 22.7498C21.5909 23.4323 20.5942 23.8332 19.5 23.8332C17.9184 23.8332 16.5425 22.9882 15.795 21.7315C15.3942 21.0815 15.1667 20.3123 15.1667 19.4998C15.1667 18.1348 15.795 16.9107 16.7917 16.1198C17.5392 15.524 18.4817 15.1665 19.5 15.1665C21.8942 15.1665 23.8334 17.1057 23.8334 19.4998Z" stroke="white" stroke-width="1.625" stroke-miterlimit="10" stroke-linecap="round" stroke-linejoin="round"/>
<path d="M17.8099 19.5001L18.8824 20.5726L21.1899 18.4385" stroke="white" stroke-width="1.625" stroke-linecap="round" stroke-linejoin="round"/>
</svg>
